<svg xmlns="http://www.w3.org/2000/svg" fill="none" viewBox="0 0 395 512">
    <path d="M.73284 512v-7.30385l8.79406-2.92154c17.58813-5.84308 26.3822-18.01617 26.3822-36.51926V75.22967c0-10.22539-1.70997-17.7727-5.12988-22.64194-3.41991-4.86923-10.01546-8.52116-19.78664-10.95578L0 38.71041v-7.30385L128.9796 0l11.7254 6.57347-2.93135 102.9843v91.29815c17.09957-14.12078 35.54268-26.17213 55.32932-36.15407 19.78664-9.98193 41.64966-14.9729 65.58905-14.9729 31.75634 0 57.03927 9.0081 75.8488 27.02426 18.80952 18.01617 28.21428 45.7708 28.21428 83.2639v205.96862c0 9.73847 1.95424 17.52925 5.86271 23.37233 3.90847 5.84308 10.7483 10.2254 20.51948 13.14693L395 504.69615V512H223.51577v-7.30385l8.79406-2.19116c17.58813-5.84308 26.3822-18.25963 26.3822-37.24964V235.91441c0-19.47694-3.29778-32.86733-9.89333-40.17119-6.59555-7.30385-18.19882-10.95577-34.80983-10.95577-10.7483 0-22.47372 2.06942-35.17625 6.20827-12.70254 4.13885-25.64936 11.32097-38.84045 21.54636v254.17404c0 18.99001 8.79406 31.1631 26.38219 36.51926l5.8627 1.46077V512H.73285Z"/>

    <style>
        path { fill: #000; }
        @media (prefers-color-scheme: dark) {
            path { fill: #FFF; }
        }
    </style>
</svg>
